<svg xmlns="http://www.w3.org/2000/svg" viewBox="0 0 512 512">
  <rect width="512" height="512" rx="96" fill="#101828"/>
  <circle cx="256" cy="256" r="168" fill="#fff"/>
  <path d="M256 112c18 0 32 14 32 32v32c44 12 76 52 76 100 0 57-46 104-104 104h-8c-29 0-56-12-75-31l40-40c9 9 22 15 35 15h8c26 0 48-21 48-48s-22-48-48-48h-8c-57 0-104-46-104-104 0-18 14-32 32-32s32 14 32 32c0 26 21 48 48 48h8c5 0 10 0 15 1v-29c0-18 14-32 32-32z" fill="#2457d6"/>
  <path d="M168 392h176v48H168z" fill="#16803c"/>
</svg>
